<?xml version="1.0" encoding="utf-8"?>
<!-- Generator: Adobe Illustrator 15.0.0, SVG Export Plug-In . SVG Version: 6.00 Build 0)  -->
<!DOCTYPE svg PUBLIC "-//W3C//DTD SVG 1.1//EN" "http://www.w3.org/Graphics/SVG/1.1/DTD/svg11.dtd">
<svg version="1.1" id="Layer_1" xmlns="http://www.w3.org/2000/svg" xmlns:xlink="http://www.w3.org/1999/xlink" x="0px" y="0px"
	 width="612px" height="792px" viewBox="0 0 612 792" enable-background="new 0 0 612 792" xml:space="preserve">
<g>
	<g>
		<g>
			<defs>
				<path id="SVGID_1_" d="M433.885,315.934c27.247,62.33,20.303,145.069-15.988,201.631
					c-49.942,80.023-140.774,119.826-232.724,105.761c-74.192-9.936-144.74-63.525-173.606-134.141
					c-35.554-77.896-16.46-178.417,42.172-239.898c65.752-71.146,173.275-92.186,260.247-53.972
					C364.975,216.793,413.463,264.091,433.885,315.934z M135.602,240.037C71.589,274.101,32.53,343.65,40.129,416.692
					c3.578,27.819,11.705,54.553,27.444,76.872c3.117,3.547,7.653,2.228,11.754,1.608l4.491-2.227
					c38.702-36.998,75.543-74.381,114.209-112.058c1.096-7.608-0.175-16.724,0.438-24.77c-0.72-43.053,0.841-86.196-0.765-128.302
					c-7.044-10.502-19.116-2.478-28.688-1.199C157.442,229.808,146.404,234.813,135.602,240.037z M115.086,531.229l-2.715,4.7
					c-0.38,3.646-0.063,7.1,2.12,9.716c11.092,8.937,23.674,14.956,36.501,20.758c12.85,5.111,26.151,10.479,40.826,10.397
					c4.629-1.185,5.282-5.971,6.137-9.83c0.957-39.838,0.255-78.146,0.51-117.555C170.529,476.447,142.602,503.252,115.086,531.229z
					 M275.185,226.619c-9.576-1.279-21.644-9.303-28.688,1.199c-1.605,42.105-0.044,85.249-0.765,128.302
					c0.613,8.046-0.657,17.162,0.434,24.77c38.666,37.677,75.511,75.06,114.21,112.058l4.49,2.227
					c4.102,0.618,8.642,1.938,11.759-1.608c15.739-22.319,23.866-49.053,27.444-76.872c7.599-73.042-31.461-142.591-95.479-176.655
					C297.794,234.813,286.756,229.808,275.185,226.619z M245.732,449.415c0.255,39.408-0.452,77.717,0.51,117.555
					c0.854,3.859,1.507,8.646,6.137,9.83c14.675,0.081,27.972-5.286,40.826-10.397c12.828-5.802,25.409-11.821,36.497-20.758
					c2.183-2.616,2.5-6.069,2.12-9.716l-2.715-4.7C301.591,503.252,273.668,476.447,245.732,449.415z"/>
			</defs>
			<clipPath id="SVGID_2_">
				<use xlink:href="#SVGID_1_"  overflow="visible"/>
			</clipPath>
			<g clip-path="url(#SVGID_2_)">
				<path fill="none" d="M94.208,624.854c38.254,21.891,82.637,34.247,129.89,33.817c45.59-0.411,88.293-12.675,125.239-33.817
					H94.208z"/>
				<path fill="none" d="M219.447,144.275c-38.559,0.349-75.047,9.178-107.737,24.678h220.139
					C297.799,152.803,259.66,143.911,219.447,144.275z"/>
				<path fill="#FFF200" d="M478.974,399.15c-0.25-27.686-4.884-54.308-13.208-79.224H-22.229
					c-8.801,26.334-13.466,54.552-13.198,83.875c0.219,24.326,3.811,47.83,10.322,70.077h493.743
					C475.574,450.192,479.206,425.105,478.974,399.15z"/>
				<path fill="#009A66" d="M331.849,168.953h-220.14C48.824,198.768,0.032,253.312-22.229,319.928h487.995
					C443.479,253.2,394.628,198.728,331.849,168.953z"/>
				<path fill="#EF3E33" d="M468.638,473.88H-25.105c18.866,64.446,62.269,118.324,119.313,150.976h255.129
					C406.468,592.159,449.794,538.215,468.638,473.88z"/>
			</g>
		</g>
	</g>
</g>
</svg>
